<?xml version="1.0" standalone="no"?>
<!DOCTYPE svg PUBLIC "-//W3C//DTD SVG 20010904//EN"
 "http://www.w3.org/TR/2001/REC-SVG-20010904/DTD/svg10.dtd">
<svg version="1.0" xmlns="http://www.w3.org/2000/svg"
 width="732.000000pt" height="480.000000pt" viewBox="0 0 732.000000 480.000000"
 preserveAspectRatio="xMidYMid meet">

<g transform="translate(0.000000,480.000000) scale(0.100000,-0.100000)"
fill="#000000" stroke="none">
<path d="M0 3084 l0 -1715 23 2 c12 1 31 -2 41 -6 13 -6 21 -4 24 3 3 9 9 9
24 1 12 -7 23 -7 27 -2 3 5 27 15 53 22 26 8 46 17 43 21 -3 4 11 11 30 14 19
4 35 10 35 14 0 11 89 34 101 27 5 -3 6 1 3 9 -5 12 1 16 23 16 16 0 34 5 40
11 5 5 25 11 42 11 18 1 27 4 20 8 -8 6 -5 12 11 20 12 6 24 9 27 7 3 -3 20 3
39 14 19 10 41 19 50 19 8 0 17 7 20 15 4 8 10 12 15 9 5 -3 15 -2 21 3 7 4
18 8 23 9 29 3 75 17 75 23 0 4 35 17 78 30 42 12 91 28 107 36 17 7 48 18 70
24 121 31 170 49 167 59 -3 16 15 15 21 0 3 -10 10 -8 25 5 11 11 26 16 31 12
6 -3 11 -2 11 3 0 6 6 9 13 9 27 -2 106 16 102 23 -7 12 43 20 87 16 26 -3 38
0 42 11 5 13 9 13 23 2 14 -12 16 -12 9 0 -7 10 -3 12 13 6 12 -4 21 -2 21 4
0 6 7 7 17 4 9 -4 14 -2 11 3 -4 5 26 9 70 9 43 0 88 4 102 9 37 13 70 16 70
5 0 -5 5 -9 11 -9 5 0 8 4 5 9 -16 26 119 60 142 36 4 -4 -3 -5 -15 -2 -13 3
-26 0 -30 -6 -3 -7 -3 -9 2 -5 4 4 16 3 26 -2 13 -8 20 -6 28 7 6 10 11 14 11
9 0 -5 7 -3 16 5 13 10 17 10 24 0 4 -8 13 -10 19 -7 19 12 12 -19 -28 -131
-49 -134 -49 -134 -31 -140 12 -4 12 -3 1 5 -11 8 -11 11 0 18 7 4 14 3 17 -4
2 -7 11 -8 26 -2 16 6 28 5 36 -3 10 -9 11 -9 5 2 -6 10 -1 12 24 6 18 -4 31
-3 31 3 0 5 7 12 14 15 11 4 13 1 10 -11 -4 -10 2 -7 15 8 11 14 21 21 21 15
0 -5 5 -3 10 5 6 10 10 11 10 3 0 -7 3 -12 8 -12 24 4 41 -3 46 -19 3 -10 15
-18 26 -19 11 -1 18 2 15 8 -4 5 -13 9 -21 9 -8 0 -14 4 -14 9 0 5 11 8 25 7
13 -2 22 1 19 5 -11 18 8 8 34 -18 17 -18 21 -25 9 -20 -9 3 -17 2 -17 -2 0
-5 7 -12 16 -15 8 -3 12 -10 9 -16 -3 -5 -1 -10 5 -10 6 0 8 -4 5 -10 -3 -6 1
-7 10 -3 14 5 14 8 3 15 -10 8 -10 9 2 6 8 -3 17 -15 21 -29 l6 -24 4 25 5 25
5 -27 c3 -15 3 -27 0 -26 -28 3 -38 -20 -16 -39 4 -4 5 -2 1 4 -4 8 -1 13 9
13 10 0 14 -5 10 -13 -4 -6 5 2 20 18 14 17 55 89 92 160 129 254 225 370 362
438 40 20 79 37 86 37 7 0 18 -27 26 -62 22 -100 11 -168 -28 -168 -8 0 -11
-5 -7 -12 5 -8 2 -9 -9 -5 -11 4 -17 1 -17 -8 0 -8 -8 -15 -18 -15 -9 0 -23
-9 -30 -20 -7 -12 -17 -18 -22 -15 -6 3 -10 2 -10 -2 0 -5 -27 -38 -59 -73
-91 -99 -91 -99 -91 -111 0 -6 -6 -17 -12 -24 -27 -30 -38 -44 -38 -49 0 -6
-26 -39 -52 -68 -10 -10 -19 -21 -20 -25 -2 -10 -46 -68 -73 -97 -11 -11 -43
-50 -70 -86 -28 -35 -58 -73 -67 -84 -10 -11 -20 -28 -24 -38 -3 -10 -10 -18
-15 -18 -6 0 -8 -4 -5 -9 4 -5 2 -11 -3 -13 -6 -1 -12 -15 -15 -30 -6 -36 18
-61 91 -98 32 -16 78 -46 102 -66 48 -42 41 -47 98 58 38 70 63 93 63 57 0
-11 7 -22 16 -26 13 -5 13 -7 2 -14 -10 -7 -11 -9 0 -9 7 0 10 -5 7 -11 -4 -5
1 -19 11 -30 9 -10 14 -22 11 -25 -10 -10 12 -44 27 -44 10 0 12 -7 8 -22 -3
-15 -2 -19 7 -14 8 6 10 1 5 -18 -5 -21 -2 -27 18 -35 21 -8 24 -15 23 -56 -2
-35 3 -49 16 -59 11 -7 16 -16 12 -19 -3 -4 2 -7 12 -7 17 0 18 14 12 288 -4
158 -10 307 -13 332 -4 30 -3 42 3 35 15 -14 53 -363 69 -627 5 -88 19 -173
39 -237 8 -22 7 -23 -44 -20 -37 3 -51 0 -51 -9 0 -7 -7 -24 -16 -38 -16 -24
-16 -26 6 -49 22 -23 30 -25 119 -25 94 0 96 -1 109 -27 6 -15 12 -33 12 -39
0 -17 -38 -28 -54 -15 -7 6 -16 7 -22 2 -5 -5 -42 -16 -82 -25 -44 -10 -81
-25 -94 -38 l-21 -21 23 -19 c24 -19 71 -22 153 -9 36 6 47 5 47 -6 0 -7 4
-13 9 -13 8 0 23 -83 25 -145 l1 -30 560 0 560 0 -3 80 c-2 44 -7 107 -12 140
-12 75 -12 105 -1 105 14 0 69 -249 71 -322 0 -5 43 -8 96 -8 104 0 98 -3 190
81 12 10 28 19 36 19 8 0 25 9 38 20 12 11 27 17 31 14 5 -3 9 0 9 5 0 6 4 10
9 9 5 -2 21 10 35 25 15 16 33 26 41 23 7 -2 15 0 17 5 2 6 18 12 37 15 25 4
31 2 26 -7 -6 -8 -4 -10 4 -5 7 5 10 11 7 14 -13 12 40 36 77 33 49 -3 77 6
77 25 0 25 -30 74 -44 74 -15 0 -39 32 -50 67 -6 19 -2 23 20 29 23 6 32 1 55
-27 16 -19 29 -40 29 -46 0 -22 17 -14 67 31 l48 44 -40 36 c-45 40 -55 43
-55 19 0 -9 -2 -14 -5 -11 -3 2 18 103 46 224 75 326 129 609 129 675 0 86 -9
91 -221 114 -69 7 -182 19 -250 24 -68 6 -142 13 -164 16 -125 14 -276 28
-575 55 -487 43 -590 59 -620 95 -11 13 -8 16 19 21 34 7 40 18 14 28 -12 5
-13 10 -5 18 8 8 8 17 0 32 -7 12 -13 34 -14 50 -2 16 -5 40 -8 52 -4 13 -2
25 3 29 6 3 8 14 6 25 -6 32 17 42 71 29 27 -6 58 -12 69 -13 11 -2 30 -6 42
-10 17 -6 23 -3 23 8 0 10 9 16 25 16 23 0 25 3 25 49 0 28 -5 53 -11 57 -6 3
-30 -12 -52 -34 -37 -35 -45 -39 -67 -31 -27 11 -61 44 -59 56 3 12 -12 46
-30 67 -9 10 -14 19 -11 20 10 4 -46 62 -83 85 -26 16 -48 22 -72 19 -30 -3
-35 -1 -35 17 0 26 41 108 57 113 7 2 19 -12 26 -30 19 -43 77 -98 151 -142
l58 -35 38 48 c21 26 66 70 101 98 78 61 83 64 125 73 33 8 34 7 34 -25 0 -29
4 -33 34 -39 71 -13 116 -75 116 -158 0 -30 12 -67 40 -123 35 -69 76 -211
105 -358 5 -26 8 -27 67 -27 l61 0 -6 118 c-12 220 -81 377 -192 435 -16 9
-24 16 -17 17 37 1 106 -58 135 -116 9 -17 41 -50 71 -73 63 -49 92 -85 130
-158 14 -29 33 -53 41 -53 7 0 17 -5 21 -12 5 -8 2 -9 -9 -5 -11 4 -17 1 -17
-7 0 -8 10 -13 25 -12 20 1 23 5 19 20 -5 14 -3 18 10 13 8 -3 19 0 23 7 5 7
17 18 28 25 20 12 20 12 -1 6 -13 -3 -21 -1 -21 8 0 10 10 12 39 7 32 -6 36
-5 27 6 -6 8 -18 14 -26 14 -8 0 -11 5 -8 10 4 7 13 7 26 0 11 -7 19 -7 19 -1
0 5 15 8 34 5 26 -3 42 3 70 26 33 25 41 28 64 18 15 -7 32 -15 37 -19 6 -4
28 -7 49 -7 26 0 34 3 25 9 -8 5 -9 9 -3 9 16 0 35 -25 26 -35 -4 -4 3 -2 16
4 14 8 22 8 22 1 0 -5 5 -10 11 -10 5 0 7 5 4 10 -3 6 -2 10 4 10 5 0 13 -5
16 -10 4 -6 11 -8 16 -5 8 6 13 -8 10 -27 0 -5 6 -8 14 -8 16 0 16 20 0 33 -9
7 14 5 63 -6 7 -2 18 -9 25 -16 9 -10 8 -11 -5 -6 -11 4 -18 2 -18 -4 0 -11
55 -9 67 2 10 11 35 8 28 -3 -4 -6 3 -9 17 -6 13 1 33 -3 45 -11 16 -11 23
-11 29 -2 5 8 3 9 -6 4 -9 -5 -11 -4 -6 4 8 13 20 8 55 -23 13 -12 21 -15 17
-9 -5 9 -2 11 8 7 9 -3 13 -10 10 -15 -3 -5 -1 -9 5 -9 5 0 22 -11 37 -25 15
-14 34 -23 41 -21 7 3 13 0 13 -6 0 -6 9 -3 20 7 11 10 21 15 21 12 1 -4 2
-13 3 -19 0 -7 6 -13 13 -13 23 0 24 -14 3 -96 -33 -132 -75 -256 -124 -369
-51 -119 -125 -263 -138 -268 -4 -2 -8 -10 -8 -18 0 -9 -5 -12 -12 -8 -7 4 -8
3 -4 -5 4 -6 0 -23 -8 -36 -12 -19 -106 -381 -106 -409 0 -2 12 -7 27 -11 15
-3 31 -12 35 -18 5 -8 8 -3 9 11 3 44 18 74 35 68 8 -3 11 0 7 10 -3 7 0 14 6
14 6 0 11 5 11 11 0 5 -4 7 -10 4 -12 -7 -12 2 0 30 8 19 9 19 9 1 2 -33 14
-8 16 31 2 59 30 137 45 128 4 -3 8 1 7 8 -1 36 4 57 13 52 6 -3 7 1 4 9 -4
10 -1 16 9 16 22 0 31 18 17 35 -10 11 -10 15 -1 15 7 0 9 5 6 10 -3 6 1 10 9
10 9 0 16 5 16 11 0 5 4 8 8 5 5 -3 9 1 9 9 0 8 -6 15 -12 15 -10 0 -10 8 -1
35 7 19 16 38 20 42 4 4 4 -1 0 -12 -5 -16 -2 -15 12 4 12 17 14 26 6 29 -17
5 -15 29 3 36 8 3 15 10 15 16 0 6 -5 8 -11 5 -5 -4 -3 10 5 30 20 46 20 55 2
55 -9 0 -12 7 -9 20 3 11 12 20 20 20 8 0 11 -5 7 -12 -5 -7 -3 -8 5 -4 7 5
10 14 7 22 -3 8 -1 14 5 14 6 0 7 4 4 10 -3 6 1 7 9 4 12 -5 13 -11 5 -25 -6
-13 -6 -19 1 -19 5 0 10 6 10 14 0 9 9 14 21 13 16 -1 19 -7 16 -24 -2 -12 0
-20 4 -17 5 3 9 16 9 29 0 22 2 24 27 14 15 -5 38 -7 51 -4 16 4 32 0 46 -12
20 -18 20 -17 6 1 -14 18 -14 19 8 7 12 -6 22 -8 22 -4 0 4 5 2 12 -5 15 -15
58 -16 58 -2 0 6 4 10 10 10 5 0 9 -5 7 -12 -1 -6 12 -12 33 -12 29 -1 35 -5
34 -23 -1 -25 15 -20 17 5 1 10 4 7 8 -8 9 -32 55 -54 107 -51 33 2 47 -3 69
-23 23 -21 35 -25 66 -21 21 3 41 0 44 -5 3 -6 11 -10 16 -10 6 0 7 6 3 13 -5
8 -3 8 9 -2 9 -7 14 -18 10 -25 -3 -6 -2 -8 2 -3 5 4 21 -5 37 -20 22 -21 38
-27 75 -28 27 0 53 -3 58 -6 6 -4 17 -5 26 -4 9 2 16 -3 16 -11 0 -7 -4 -11
-9 -8 -4 3 -8 1 -8 -4 0 -16 32 -24 44 -11 8 9 8 10 -1 5 -7 -4 -13 -2 -13 3
0 6 5 11 11 11 5 0 7 6 3 13 -4 6 3 2 15 -10 11 -12 21 -27 21 -33 0 -9 14
-14 33 -11 4 0 7 -6 7 -14 0 -8 9 -15 20 -15 10 0 23 -6 27 -14 4 -7 19 -19
33 -26 22 -12 24 -11 13 2 -7 8 -10 18 -7 21 8 8 34 -18 34 -35 0 -10 3 -9 10
2 8 12 10 12 16 -4 5 -14 9 -15 15 -4 6 9 9 6 9 -12 1 -25 1 -25 10 -3 5 13
12 23 15 23 4 0 3 -4 0 -10 -3 -5 0 -10 9 -10 8 0 17 6 19 13 5 12 11 -17 8
-40 -1 -6 3 -14 9 -18 5 -3 10 3 10 14 0 12 5 21 11 21 5 0 8 -4 4 -9 -3 -5 0
-13 6 -17 8 -4 7 -9 -2 -15 -12 -8 -11 -11 1 -19 8 -5 23 -7 33 -4 9 3 17 0
17 -6 0 -7 7 -9 16 -6 9 4 13 2 8 -5 -4 -8 1 -9 16 -4 17 5 21 4 15 -6 -6 -9
-3 -11 8 -6 11 4 17 1 17 -7 0 -19 24 -37 36 -27 5 4 20 5 34 0 l25 -7 -25 -2
c-23 -1 -23 -2 -5 -9 11 -5 23 -7 26 -5 4 2 12 -3 19 -11 10 -12 16 -13 27 -4
11 10 12 9 7 -5 -5 -13 1 -16 30 -16 20 0 36 -4 36 -10 0 -11 71 -13 121 -3
33 7 33 7 9 14 -24 7 -24 7 -2 8 l22 1 0 2025 0 2025 -3660 0 -3660 0 0 -1716z
m3920 1171 c-14 -8 -29 -14 -35 -14 -5 0 1 6 15 14 14 8 30 14 35 14 6 0 -1
-6 -15 -14z m-411 -78 c-50 -34 -59 -39 -59 -33 0 7 73 56 84 56 5 0 -6 -10
-25 -23z m-91 -69 c-4 -11 -128 -63 -128 -54 0 4 66 46 90 58 24 11 42 9 38
-4z m723 -88 l-7 -35 -6 35 c-6 38 -1 57 12 43 5 -4 5 -24 1 -43z m220 3 c13
-17 13 -17 -6 -3 -11 8 -22 16 -24 17 -2 2 0 3 6 3 6 0 17 -8 24 -17z m-1107
-28 c-9 -14 -21 -25 -27 -25 -6 0 0 11 13 25 13 14 25 25 27 25 2 0 -4 -11
-13 -25z m981 -45 c-3 -5 -14 -10 -23 -9 -14 0 -13 2 3 9 27 11 27 11 20 0z
m120 -39 c-8 -17 -20 -31 -26 -31 -10 0 3 32 24 58 17 22 19 5 2 -27z m57 -37
c-6 -34 -20 -39 -28 -10 -7 30 1 47 20 40 8 -3 11 -15 8 -30z m-646 -129 c88
-8 206 -15 264 -15 111 0 166 -16 202 -56 20 -24 21 -27 19 -203 -1 -121 -3
-142 -15 -132 -7 6 -16 36 -18 67 -3 37 -11 61 -24 73 -30 29 -232 93 -255 80
-49 -26 -1 -108 73 -124 52 -12 147 -43 166 -55 15 -10 15 -11 -3 -5 -130 42
-247 29 -295 -32 -23 -29 -67 -28 -84 2 -5 11 -23 39 -38 62 -32 47 -34 64
-12 98 8 13 14 36 12 52 l-3 28 -90 -3 c-190 -7 -230 -25 -257 -115 -7 -23
-25 -54 -41 -70 -21 -19 -26 -31 -19 -40 5 -6 13 -41 16 -77 5 -38 17 -82 31
-108 13 -23 20 -40 14 -37 -5 4 -9 -3 -9 -15 0 -35 56 -51 171 -49 87 1 122
-3 108 -14 -47 -36 -108 -67 -123 -63 -35 9 -64 -11 -77 -54 -7 -22 -15 -40
-19 -40 -4 0 -28 16 -54 35 -54 42 -82 92 -92 164 -9 68 -28 61 -32 -13 -3
-50 -6 -58 -28 -66 -40 -16 -51 -12 -94 26 -43 39 -84 117 -94 180 -14 82 35
184 87 184 11 0 18 -3 14 -6 -3 -3 4 -16 15 -28 26 -27 78 -107 78 -120 0 -5
-11 1 -24 13 -29 27 -43 21 -62 -24 -17 -41 -5 -87 36 -135 l30 -34 0 64 c0
69 13 108 23 71 3 -12 13 -21 25 -21 16 0 20 11 30 88 6 51 7 88 1 90 -20 8
-54 41 -47 47 3 4 20 0 36 -9 l30 -15 20 82 c12 45 26 114 32 152 6 39 18 80
26 93 24 37 71 53 135 47 31 -3 128 -12 215 -20z m-549 -207 c-3 -7 -5 -2 -5
12 0 14 2 19 5 13 2 -7 2 -19 0 -25z m442 -144 c35 -14 41 -20 35 -38 -4 -11
-7 -22 -8 -23 -1 -1 -22 5 -46 13 -60 21 -136 13 -167 -18 -28 -28 -44 -118
-21 -118 10 0 13 9 10 35 -3 28 1 40 26 65 25 25 39 30 77 30 56 0 110 -21
125 -50 6 -11 10 -40 8 -63 -3 -41 -4 -42 -48 -50 -25 -4 -80 -6 -122 -4 -64
4 -78 2 -78 -11 0 -12 -3 -12 -16 -1 -38 31 -60 130 -46 199 6 28 15 38 42 48
45 16 174 8 229 -14z m526 -50 l40 -19 0 -65 c-1 -121 -53 -182 -152 -178 -29
1 -47 5 -41 9 7 4 -19 21 -60 39 -39 18 -69 36 -67 41 3 4 1 10 -5 14 -15 9
-12 69 6 114 23 57 59 73 159 68 53 -2 94 -10 120 -23z m210 -34 c8 -7 20 -30
25 -51 23 -83 -25 -215 -103 -285 -43 -39 -84 -44 -79 -9 1 11 4 43 7 70 5 45
3 43 -13 -23 -11 -40 -28 -82 -38 -94 -23 -25 -94 -78 -106 -78 -4 0 -8 15 -8
34 0 19 -9 45 -22 61 -20 26 -24 27 -82 21 -34 -3 -88 -1 -121 4 -33 6 -82 14
-110 18 -60 9 -75 17 -75 42 0 19 19 30 50 30 21 0 28 14 46 99 14 67 39 115
54 106 5 -3 23 -43 40 -90 32 -83 33 -84 79 -99 81 -26 116 -29 173 -12 61 18
88 42 117 106 l21 45 0 -34 c0 -53 11 -29 15 33 2 30 9 70 15 88 12 32 15 34
56 33 24 -1 50 -8 59 -15z m-819 -422 c20 -22 102 -78 116 -78 19 0 5 17 -37
44 -25 15 -44 30 -42 33 3 2 31 -3 63 -11 33 -8 75 -16 94 -16 34 -1 147 14
197 27 l25 6 -18 -29 c-15 -25 -12 -24 25 11 l44 40 -7 -35 c-11 -60 -64 -153
-101 -177 l-34 -23 -26 34 c-22 29 -33 34 -82 40 -51 6 -59 4 -83 -19 -33 -31
-46 -31 -92 0 -41 28 -78 96 -78 143 0 37 10 40 36 10z m13 -445 c1 -7 -6 -30
-15 -52 -16 -41 -48 -60 -90 -53 -20 3 -20 5 -8 90 8 48 14 93 14 101 0 16 97
-68 99 -86z m-467 -169 c-12 -8 -22 -22 -22 -30 0 -8 -4 -14 -10 -14 -5 0 -10
5 -10 10 0 14 38 50 52 50 7 0 2 -7 -10 -16z m1608 -308 c0 -2 -8 -10 -17 -17
-16 -13 -17 -12 -4 4 13 16 21 21 21 13z m734 -151 c-4 -8 -11 -12 -16 -9 -6
4 -5 10 3 15 19 12 19 11 13 -6z m-3000 -86 c-3 -5 -13 -9 -22 -8 -11 0 -12 2
-4 6 6 2 10 9 7 14 -4 5 1 6 9 3 9 -3 13 -10 10 -15z m966 -54 c-6 -8 -18 -34
-26 -57 -13 -38 -14 -39 -9 -9 5 34 29 81 41 81 4 0 1 -7 -6 -15z m-43 -147
c-3 -7 -5 -2 -5 12 0 14 2 19 5 13 2 -7 2 -19 0 -25z m-176 -29 c19 -19 22
-19 44 -5 14 9 26 16 27 16 5 0 -9 -221 -14 -226 -4 -4 -14 31 -18 64 -1 4 -8
14 -16 23 -8 9 -11 19 -7 22 3 4 1 7 -5 7 -7 0 -12 -8 -13 -17 -3 -71 -32
-106 -37 -45 -4 40 7 182 14 182 2 0 13 -9 25 -21z m166 -21 c-3 -7 -5 -2 -5
12 0 14 2 19 5 13 2 -7 2 -19 0 -25z m-10 -50 c-3 -7 -5 -2 -5 12 0 14 2 19 5
13 2 -7 2 -19 0 -25z m2258 -38 c0 -17 -5 -30 -12 -30 -7 0 -10 7 -8 15 3 8 7
22 10 30 7 23 10 18 10 -15z m-5418 14 c-3 -3 -12 -4 -19 -1 -8 3 -5 6 6 6 11
1 17 -2 13 -5z m3150 -26 c-3 -8 -6 -5 -6 6 -1 11 2 17 5 13 3 -3 4 -12 1 -19z
m2213 -22 c0 -11 -19 -15 -25 -6 -3 5 1 10 9 10 9 0 16 -2 16 -4z m218 -16
c-7 -11 -17 -20 -22 -20 -5 0 -1 9 9 20 10 11 20 20 22 20 2 0 -2 -9 -9 -20z
m-2441 -22 c-3 -7 -5 -2 -5 12 0 14 2 19 5 13 2 -7 2 -19 0 -25z m-92 -88 c-3
-5 -12 -10 -18 -10 -7 0 -6 4 3 10 19 12 23 12 15 0z m2855 -10 c0 -5 -5 -10
-11 -10 -5 0 -7 5 -4 10 3 6 8 10 11 10 2 0 4 -4 4 -10z m25 1 c3 -5 2 -12 -3
-15 -5 -3 -9 1 -9 9 0 17 3 19 12 6z m-2818 -63 c-3 -7 -5 -2 -5 12 0 14 2 19
5 13 2 -7 2 -19 0 -25z m3013 -33 c0 -9 -6 -12 -16 -8 -13 5 -13 7 -2 14 17
11 18 11 18 -6z m-3023 -17 c-3 -8 -6 -5 -6 6 -1 11 2 17 5 13 3 -3 4 -12 1
-19z m-10 -50 c-3 -8 -6 -5 -6 6 -1 11 2 17 5 13 3 -3 4 -12 1 -19z m2098 -27
c3 -5 2 -12 -3 -15 -5 -3 -9 1 -9 9 0 17 3 19 12 6z m-2108 -33 c-3 -7 -5 -2
-5 12 0 14 2 19 5 13 2 -7 2 -19 0 -25z m2073 -22 c0 -2 -7 -7 -16 -10 -8 -3
-12 -2 -9 4 6 10 25 14 25 6z m-2083 -28 c-3 -8 -6 -5 -6 6 -1 11 2 17 5 13 3
-3 4 -12 1 -19z m-10 -50 c-3 -8 -6 -5 -6 6 -1 11 2 17 5 13 3 -3 4 -12 1 -19z
m3598 -18 c-3 -5 -11 -10 -16 -10 -6 0 -7 5 -4 10 3 6 11 10 16 10 6 0 7 -4 4
-10z m-3608 -32 c-3 -8 -6 -5 -6 6 -1 11 2 17 5 13 3 -3 4 -12 1 -19z m3743
-22 c0 -2 -7 -7 -16 -10 -8 -3 -12 -2 -9 4 6 10 25 14 25 6z m-3753 -38 c-3
-7 -5 -2 -5 12 0 14 2 19 5 13 2 -7 2 -19 0 -25z m-10 -50 c-3 -7 -5 -2 -5 12
0 14 2 19 5 13 2 -7 2 -19 0 -25z m-10 -50 c-3 -8 -6 -5 -6 6 -1 11 2 17 5 13
3 -3 4 -12 1 -19z m-10 -50 c-3 -8 -6 -5 -6 6 -1 11 2 17 5 13 3 -3 4 -12 1
-19z m-10 -60 c-3 -7 -5 -2 -5 12 0 14 2 19 5 13 2 -7 2 -19 0 -25z m1725
-109 c17 -23 62 -169 54 -177 -2 -1 -18 20 -35 47 -17 28 -35 51 -41 51 -5 0
-22 19 -37 41 -27 40 -27 42 -8 55 26 19 44 15 67 -17z m-1752 -29 c0 -23 -37
-28 -71 -10 -32 18 -21 30 26 30 38 0 45 -3 45 -20z m1610 -5 c12 -15 52 -166
45 -173 -1 -2 -11 20 -20 47 -9 28 -20 49 -25 46 -4 -3 -13 9 -20 25 -8 18
-20 30 -31 30 -22 0 -24 11 -7 28 16 16 43 15 58 -3z m-1292 -123 c3 -19 -1
-22 -27 -22 -35 0 -42 22 -13 39 23 14 36 9 40 -17z m184 3 c0 -5 -5 -11 -11
-13 -6 -2 -11 4 -11 13 0 9 5 15 11 13 6 -2 11 -8 11 -13z m878 -169 c0 -2 -7
-7 -16 -10 -8 -3 -12 -2 -9 4 6 10 25 14 25 6z"/>
<path d="M3094 3315 c-30 -73 -6 -162 62 -224 37 -35 64 -51 64 -37 0 2 -16
30 -36 62 -32 53 -35 65 -31 113 3 40 10 59 25 72 l22 17 -25 16 c-40 26 -64
20 -81 -19z"/>
<path d="M3570 3307 c-35 -18 -48 -61 -29 -95 20 -36 78 -43 108 -13 53 53
-12 142 -79 108z m80 -37 c0 -5 -2 -10 -4 -10 -3 0 -8 5 -11 10 -3 6 -1 10 4
10 6 0 11 -4 11 -10z"/>
<path d="M3944 3312 c-6 -4 -17 -18 -23 -30 l-13 -24 32 24 c25 18 44 23 92
23 55 -1 63 -4 89 -33 30 -34 36 -34 18 0 -6 11 -26 26 -44 34 -36 15 -132 19
-151 6z"/>
<path d="M3947 3262 c-21 -23 -22 -76 -1 -96 16 -17 70 -21 91 -8 6 4 17 21
23 37 9 24 8 33 -8 54 -25 34 -80 40 -105 13z m93 -22 c0 -5 -2 -10 -4 -10 -3
0 -8 5 -11 10 -3 6 -1 10 4 10 6 0 11 -4 11 -10z"/>
<path d="M4356 3251 c-7 -10 22 -37 30 -28 9 8 -3 37 -15 37 -5 0 -12 -4 -15
-9z"/>
<path d="M3907 2334 c-2 -2 0 -29 6 -60 13 -78 2 -141 -31 -170 -123 -108
-130 -123 -94 -192 l18 -32 56 57 c49 50 57 65 64 108 4 33 16 61 35 82 26 30
49 88 49 124 0 25 -37 66 -69 77 -16 6 -31 8 -34 6z"/>
<path d="M3967 2093 c-4 -3 -7 -30 -7 -60 0 -40 4 -53 15 -53 11 0 15 12 15
48 0 48 -11 78 -23 65z"/>
<path d="M1940 1925 c-6 -7 -2 -11 11 -11 10 0 19 3 19 7 0 4 8 10 18 12 9 3
4 4 -11 4 -16 -1 -32 -6 -37 -12z"/>
<path d="M3760 1835 c-13 -15 -5 -111 9 -120 4 -2 4 17 1 43 -4 26 -4 57 1 70
10 26 6 28 -11 7z"/>
<path d="M4555 1840 c-3 -5 3 -10 14 -10 12 0 21 5 21 10 0 6 -6 10 -14 10 -8
0 -18 -4 -21 -10z"/>
<path d="M3802 1828 c-13 -13 -16 -47 -4 -64 21 -32 74 -38 85 -10 4 9 -2 11
-18 8 -31 -6 -64 40 -45 63 15 18 -1 20 -18 3z"/>
<path d="M4533 1802 c-9 -15 -8 -19 3 -19 8 0 14 9 14 19 0 10 -1 18 -3 18 -1
0 -7 -8 -14 -18z"/>
<path d="M4560 1798 c0 -8 9 -14 20 -13 21 1 41 15 22 15 -5 0 -17 3 -26 6
-10 4 -16 1 -16 -8z"/>
<path d="M4547 1739 c7 -7 15 -10 18 -7 3 3 -2 9 -12 12 -14 6 -15 5 -6 -5z"/>
<path d="M4510 1710 c0 -33 16 -41 78 -39 34 1 59 6 57 9 -4 7 -79 23 -110 25
-5 0 -13 5 -17 10 -5 6 -8 4 -8 -5z"/>
<path d="M5600 1314 c0 -8 5 -12 10 -9 6 4 8 11 5 16 -9 14 -15 11 -15 -7z"/>
<path d="M5638 1313 c7 -3 16 -2 19 1 4 3 -2 6 -13 5 -11 0 -14 -3 -6 -6z"/>
<path d="M5856 1293 c5 -5 12 -12 16 -18 4 -6 8 -2 8 8 0 9 -7 17 -17 17 -9 0
-12 -3 -7 -7z"/>
<path d="M6400 1085 c0 -7 30 -13 34 -7 3 4 -4 9 -15 9 -10 1 -19 0 -19 -2z"/>
<path d="M5260 1064 c0 -8 5 -12 10 -9 6 4 8 11 5 16 -9 14 -15 11 -15 -7z"/>
<path d="M2634 930 c-37 -8 -92 -41 -114 -67 -59 -70 -87 -122 -106 -193 -23
-87 -19 -124 15 -153 47 -40 203 -69 256 -48 20 8 20 8 -1 15 -119 38 -88 210
46 250 25 8 53 17 62 21 12 5 31 -6 62 -35 25 -24 46 -37 46 -31 0 26 -30 78
-63 109 -66 63 -145 53 -222 -29 -58 -62 -86 -125 -93 -207 l-5 -64 -25 26
c-19 19 -26 38 -30 79 -8 103 65 215 176 266 29 14 52 28 52 33 0 4 8 8 17 8
10 0 13 3 8 9 -16 15 -48 19 -81 11z"/>
<path d="M2927 683 c-2 -4 -7 -21 -11 -38 -4 -16 -17 -46 -30 -65 -35 -54 -38
-68 -16 -80 34 -18 57 -12 65 18 3 15 12 34 20 42 7 8 15 31 19 51 5 29 2 39
-18 58 -13 12 -26 19 -29 14z"/>
<path d="M2842 649 c2 -6 8 -10 13 -10 5 0 11 4 13 10 2 6 -4 11 -13 11 -9 0
-15 -5 -13 -11z"/>
<path d="M4883 195 c0 -8 4 -12 9 -9 5 3 6 10 3 15 -9 13 -12 11 -12 -6z"/>
</g>
</svg>
